<?xml version="1.0" standalone="no"?><!DOCTYPE svg PUBLIC "-//W3C//DTD SVG 1.1//EN" "http://www.w3.org/Graphics/SVG/1.1/DTD/svg11.dtd"><svg t="1718217097136" class="icon" viewBox="0 0 1024 1024" version="1.1" xmlns="http://www.w3.org/2000/svg" p-id="2142" xmlns:xlink="http://www.w3.org/1999/xlink" width="12" height="12"><path d="M992 714.8c0 100.2-77.7 181.5-173.6 181.5-85.4 0-156.3-64.5-170.7-149.4H376.4c-14.5 84.9-85.3 149.4-170.7 149.4-92.4 0-167.8-75.6-173.1-170.8H32v-64c0-27.8 8.3-54.9 23.7-77.5l78.4-114.7h-28.2c-20.4 0-31.8-25-18.6-41.3 11.2-13.9 28-22.7 46.8-22.7h265.5c33.8 0 61.3 28.7 61.3 64L445.6 496l-11.9 20.8-9.4 16.4c-10.8 18.9 10.1 38 31.2 38h84.7c33.4 0 112.2-12.2 141.2-147.8l15-151.6c14.8-38.2-12.2-80-51.6-80h-30.6c-16.9 0-30.6-14.3-30.6-32s13.7-32 30.6-32h143c39.5 0 71.5 33.5 71.5 74.7 0 3.4-0.5 12.1-0.5 12.1-0.6 1.4-1 2.9-1.3 4.4-1.4 6.7-3.8 12.9-6.8 18.8-1.6 3-2.7 6.2-3.4 9.6l-36.2 218.8c-4.4 26.6 10 52.6 34.2 61.9l13.2 5.8C919.3 539 992 618 992 714.8z m-786.4-96c-50.8 0-91.9 43-91.9 96.1 0 53.1 41.1 96.1 91.9 96.1 50.8 0 91.9-43 91.9-96.1 0-53.1-41.1-96.1-91.9-96.1z m612.8 0c-50.8 0-91.9 43-91.9 96.1 0 53.1 41.2 96.1 91.9 96.1 50.8 0 91.9-43 91.9-96.1 0-53.1-41.1-96.1-91.9-96.1z m0 128.1c-16.9 0-30.6-14.4-30.6-32 0-17.7 13.7-32 30.6-32 16.9 0 30.6 14.4 30.6 32s-13.7 32-30.6 32z m-612.8 0c-16.9 0-30.6-14.4-30.6-32 0-17.7 13.7-32 30.6-32s30.6 14.4 30.6 32c0.1 17.6-13.7 32-30.6 32zM88.5 364.2V245.9c0-39.6 41.9-86 79.8-86h187.3c43.4 0 71.6 40.7 71.6 86v118.3H88.5z" fill="#ffffff" p-id="2143"></path></svg>