<?xml version="1.0" standalone="no"?><!DOCTYPE svg PUBLIC "-//W3C//DTD SVG 1.1//EN" "http://www.w3.org/Graphics/SVG/1.1/DTD/svg11.dtd"><svg t="1718217082672" class="icon" viewBox="0 0 1024 1024" version="1.1" xmlns="http://www.w3.org/2000/svg" p-id="1673" xmlns:xlink="http://www.w3.org/1999/xlink" width="13" height="13"><path d="M800 128H224c-52.8 0-96 43.2-96 96v576c0 52.8 43.2 96 96 96h576c52.8 0 96-43.2 96-96V224c0-52.8-43.2-96-96-96z m-576 48h576c26.5 0 48 21.5 48 48s-21.5 48-48 48H224c-26.5 0-48-21.5-48-48s21.5-48 48-48z m576 672H224c-26.5 0-48-21.5-48-48V306.6c14.2 8.3 30.5 13.4 48 13.4h576c17.5 0 33.8-5.1 48-13.4V800c0 26.5-21.5 48-48 48z" p-id="1674" fill="#7c9579"></path><path d="M704 432c-26.5 0-48 21.5-48 48 0 16.7 8.6 31.4 21.6 40-11.8 81.2-81.2 144-165.6 144-84.4 0-153.8-62.8-165.6-144 13-8.6 21.6-23.3 21.6-40 0-26.5-21.5-48-48-48s-48 21.5-48 48c0 18.4 10.5 34.3 25.8 42.3C310.8 629 401.8 712 512 712c110.2 0 201.2-83 214.2-189.7 15.2-8 25.8-23.9 25.8-42.3 0-26.5-21.5-48-48-48z" p-id="1675" fill="#7c9579"></path></svg>