<svg width="35" height="17" viewBox="0 0 35 17" fill="none" xmlns="http://www.w3.org/2000/svg">
<path d="M7.175 15.2648C7.2491 15.7314 7.54174 16.1627 8.00014 16.4808C8.45853 16.799 9.05252 16.9831 9.675 17H25.2875C25.91 16.9831 26.504 16.799 26.9624 16.4808C27.4208 16.1627 27.7134 15.7314 27.7875 15.2648L31.25 8.48717H3.75L7.175 15.2648ZM33.5625 3.77208C33.1157 3.77844 32.6747 3.69431 32.2856 3.52846C31.8965 3.36261 31.5734 3.12109 31.35 2.82906L30.1 1.0939C29.8959 0.776262 29.5809 0.506588 29.1889 0.313855C28.7968 0.121123 28.3426 0.0126184 27.875 0H7.1375C6.6724 0.000186192 6.21658 0.0982512 5.82131 0.283169C5.42603 0.468087 5.10697 0.732525 4.9 1.04675L3.75 2.78191C3.51338 3.08537 3.17519 3.33658 2.76933 3.51037C2.36346 3.68415 1.90417 3.7744 1.4375 3.77208C1.08588 3.76774 0.744553 3.86165 0.479182 4.03574C0.213812 4.20983 0.0431404 4.45179 0 4.71509V5.65811C0 6.17677 0.925 6.60113 1.6125 6.60113H33.3875C34.075 6.60113 35 6.17677 35 5.65811V4.71509C34.9569 4.45179 34.7862 4.20983 34.5208 4.03574C34.2554 3.86165 33.9141 3.76774 33.5625 3.77208Z" fill="#231F20"/>
</svg>
