<svg width="27" height="26" viewBox="0 0 27 26" fill="none" xmlns="http://www.w3.org/2000/svg">
<path d="M24.9101 1.51062C23.4133 0.0153281 20.9034 -0.189581 17.8485 0.955538C18.9968 1.5505 19.1666 2.42527 18.6983 3.1554C18.5013 3.48579 18.1819 3.72538 17.8091 3.82219C17.4363 3.919 17.0404 3.86524 16.7071 3.67256C15.886 3.20833 14.9694 2.93778 14.0274 2.88161C12.6169 3.79228 11.2794 4.811 10.0271 5.92858C10.7085 6.09076 11.3682 6.33337 11.9922 6.65128C12.266 6.86117 12.4567 7.16095 12.5305 7.49763C12.6043 7.83431 12.5565 8.18618 12.3954 8.49105C12.2344 8.79591 11.9705 9.03412 11.6505 9.16356C11.3305 9.293 10.9749 9.30533 10.6467 9.19837C9.58165 8.67654 8.37788 8.50648 7.20957 8.71281C5.89755 10.0922 4.70167 11.5772 3.63407 13.1527C4.96269 13.0815 6.2906 13.3054 7.52204 13.8083C7.85686 13.9757 8.11463 14.2649 8.24227 14.6163C8.36991 14.9678 8.35772 15.3546 8.2082 15.6974C8.05868 16.0401 7.78321 16.3125 7.4385 16.4587C7.09379 16.6048 6.70608 16.6134 6.35518 16.4828C6.0064 16.3553 3.13113 15.2076 1.51371 17.0667C0.261538 20.2422 0.404971 22.8664 1.94425 24.4127C4.85274 27.3183 11.5837 25.3171 18.6913 18.2291C25.799 11.1412 27.8185 4.42473 24.9101 1.51062Z" fill="black"/>
</svg>
