<svg width="23" height="27" viewBox="0 0 23 27" fill="none" xmlns="http://www.w3.org/2000/svg">
<path d="M19.7669 0.00140425H3.23309C2.76781 -0.0128534 2.30532 0.0816088 1.87908 0.27796C1.45284 0.474311 1.07349 0.767644 0.768464 1.13675C0.463441 1.50585 0.240367 1.94149 0.115375 2.41218C-0.00961704 2.88287 -0.0334036 3.37683 0.0457355 3.85835L2.74626 23.1431C2.89885 24.1961 3.3992 25.1594 4.15982 25.8644C4.92044 26.5695 5.89293 26.9714 6.90727 27H16.0927C17.1071 26.9714 18.0796 26.5695 18.8402 25.8644C19.6008 25.1594 20.1011 24.1961 20.2537 23.1431L22.9543 3.85835C23.0334 3.37683 23.0096 2.88287 22.8846 2.41218C22.7596 1.94149 22.5366 1.50585 22.2315 1.13675C21.9265 0.767644 21.5472 0.474311 21.1209 0.27796C20.6947 0.0816088 20.2322 -0.0128534 19.7669 0.00140425ZM20.2262 3.44373L19.5556 8.67952H3.44435L2.77382 3.44373C2.75972 3.37236 2.75978 3.29871 2.774 3.22737C2.78823 3.15604 2.8163 3.08854 2.85649 3.0291C2.90728 2.98101 2.96686 2.94425 3.03159 2.92104C3.09633 2.89784 3.16488 2.88867 3.23309 2.89411H19.7669C19.8351 2.88867 19.9037 2.89784 19.9684 2.92104C20.0331 2.94425 20.0927 2.98101 20.1435 3.0291C20.1837 3.08854 20.2118 3.15604 20.226 3.22737C20.2402 3.29871 20.2403 3.37236 20.2262 3.44373Z" fill="black"/>
</svg>
