<svg width="27" height="28" viewBox="0 0 27 28" fill="none" xmlns="http://www.w3.org/2000/svg">
<path d="M7.62951 5.78458L0.293743 25.1735C-0.565485 27.4523 0.524718 28.5917 2.7236 27.6917L6.54855 26.1405C6.23395 25.7987 6.00555 25.3818 5.88357 24.9267C5.7616 24.4715 5.74981 23.9922 5.84926 23.5312C5.9487 23.0703 6.15632 22.6418 6.4537 22.2838C6.75109 21.9259 7.12907 21.6494 7.55417 21.479C7.97928 21.3086 8.43837 21.2494 8.8908 21.3068C9.34322 21.3642 9.77502 21.5363 10.1479 21.8079C10.5208 22.0795 10.8234 22.4422 11.0287 22.8639C11.234 23.2857 11.3358 23.7533 11.3251 24.2256L21.4326 20.0893C19.0951 16.3838 11.205 8.20699 7.62951 5.78458ZM11.8517 17.2169C11.4642 17.6189 10.9704 17.8929 10.4326 18.004C9.89488 18.1151 9.33741 18.0584 8.83074 17.8411C8.32408 17.6238 7.891 17.2557 7.58628 16.7832C7.28157 16.3108 7.11893 15.7553 7.11893 15.187C7.11893 14.6187 7.28157 14.0632 7.58628 13.5908C7.891 13.1183 8.32408 12.7502 8.83074 12.5329C9.33741 12.3156 9.89488 12.2589 10.4326 12.37C10.9704 12.4811 11.4642 12.7551 11.8517 13.1571C12.3708 13.6957 12.6623 14.4258 12.6623 15.187C12.6623 15.9482 12.3708 16.6783 11.8517 17.2169ZM26.7358 15.5508C24.2597 11.3571 16.0555 2.8547 12.0365 0.28866C11.8041 0.1389 11.5424 0.0445248 11.2705 0.0123554C10.9986 -0.0198139 10.7231 0.0110257 10.4641 0.102646C10.2051 0.194265 9.96889 0.344377 9.77268 0.542133C9.57646 0.739889 9.42508 0.980349 9.32949 1.24614L8.62733 3.10364C10.3827 4.15687 12.9881 6.30161 16.9424 10.4188C20.8967 14.5359 22.9755 17.236 23.9918 19.0361L25.7842 18.3084C26.0403 18.2118 26.2727 18.0576 26.4646 17.857C26.6565 17.6563 26.8031 17.4142 26.8941 17.1479C26.9851 16.8815 27.018 16.5977 26.9907 16.3166C26.9633 16.0355 26.8762 15.7642 26.7358 15.5221V15.5508Z" fill="black"/>
</svg>
