<svg width="27" height="28" viewBox="0 0 27 28" fill="none" xmlns="http://www.w3.org/2000/svg">
<path d="M18.3488 19.022C20.2551 17.0444 21.3305 14.3661 21.3406 11.5703C21.3507 8.77446 20.2948 6.08778 18.4027 4.09547L4.00451 19.022C5.91687 20.9739 8.49294 22.068 11.1766 22.068C13.8603 22.068 16.4364 20.9739 18.3488 19.022ZM14.6502 9.40371C14.8628 9.01318 15.2131 8.72316 15.6275 8.59446C16.0418 8.46575 16.4882 8.50837 16.8729 8.71336C17.293 8.81605 17.6586 9.083 17.8934 9.45849C18.1281 9.83397 18.2139 10.289 18.1328 10.7284C17.9201 11.119 17.5699 11.409 17.1555 11.5377C16.7411 11.6664 16.2948 11.6238 15.9101 11.4188C15.4899 11.3161 15.1243 11.0492 14.8896 10.6737C14.6548 10.2982 14.5691 9.84319 14.6502 9.40371ZM13.1744 13.9003C13.5248 13.6386 13.9592 13.5274 14.3869 13.59C14.8145 13.6526 15.2023 13.8841 15.4691 14.2362C15.8087 14.5128 16.0321 14.9148 16.0924 15.3581C16.1528 15.8015 16.0456 16.2518 15.7931 16.6151C15.4416 16.8758 15.0064 16.9855 14.5787 16.9212C14.151 16.8568 13.7639 16.6235 13.4983 16.2699C13.1587 15.9933 12.9354 15.5913 12.875 15.148C12.8146 14.7046 12.9219 14.2543 13.1744 13.891V13.9003ZM10.1148 19.5911C9.69083 19.6752 9.25195 19.5863 8.88975 19.3429C8.52756 19.0995 8.27005 18.7205 8.171 18.285C7.97326 17.8861 7.93216 17.4234 8.0563 16.9938C8.18045 16.5642 8.46021 16.2012 8.83692 15.9807C9.26479 15.8916 9.70934 15.9792 10.0758 16.2249C10.4423 16.4706 10.7016 16.855 10.7987 17.2961C10.9922 17.6962 11.0291 18.1584 10.9017 18.5861C10.7742 19.0138 10.4923 19.3738 10.1148 19.5911ZM22.3623 0L19.6626 2.79872C21.6968 5.1741 22.7794 8.26499 22.6892 11.44C22.5991 14.615 21.343 17.6346 19.1776 19.8818C17.0122 22.1291 14.1009 23.4344 11.0383 23.5312C7.97577 23.628 4.99312 22.509 2.69967 20.4027L0 23.2014C2.96781 26.2757 6.99207 28.0017 11.1875 28C15.3829 27.9982 19.4058 26.2688 22.3713 23.1921C25.3367 20.1154 27.0017 15.9435 27 11.5941C26.9983 7.24475 25.3301 3.07423 22.3623 0Z" fill="black"/>
</svg>
