<svg width="7" height="7" viewBox="0 0 7 7" fill="none" xmlns="http://www.w3.org/2000/svg">
<g id="ic_&#230;&#148;&#182;&#232;&#151;&#143;_20_&#233;&#157;&#162;">
<path id="Star" d="M5.14847 6.61194C5.38204 6.73389 5.67024 6.64339 5.79219 6.40982C5.84062 6.31706 5.8572 6.21095 5.83939 6.10783L5.52537 4.28967L6.85473 3.00287C7.04405 2.81961 7.04897 2.51758 6.86571 2.32826C6.79222 2.25234 6.69562 2.20297 6.59105 2.18788L4.75102 1.92237L3.92726 0.264863C3.81 0.0289091 3.52366 -0.0673069 3.2877 0.0499586C3.19456 0.096251 3.11909 0.171716 3.0728 0.264863L2.24904 1.92237L0.40901 2.18788C0.148224 2.22551 -0.0326787 2.46743 0.0049523 2.72821C0.0200416 2.83278 0.0694155 2.92938 0.145329 3.00287L1.47469 4.28967L1.16067 6.10783C1.11582 6.36747 1.28995 6.61431 1.5496 6.65915C1.65271 6.67696 1.75883 6.66037 1.85159 6.61194L3.50003 5.75133L5.14847 6.61194Z" fill="#8BA789"/>
</g>
</svg>
