<svg width="14" height="14" viewBox="0 0 17 14" fill="none" xmlns="http://www.w3.org/2000/svg">
<g id="ic_&#230;&#182;&#136;&#230;&#129;&#175;_20">
<g id="ic_&#230;&#182;&#136;&#230;&#129;&#175;_20_2">
<g id="&#230;&#155;&#180;&#229;&#164;&#154;&#229;&#164;&#135;&#228;&#187;&#189;">
<path id="&#229;&#155;&#190;&#230;&#160;&#135; / G / &#230;&#155;&#180;&#229;&#164;&#154; / 66" fill-rule="evenodd" clip-rule="evenodd" d="M5.77262 6.16548C5.77262 6.64096 5.34525 7.0264 4.81807 7.0264C4.29089 7.0264 3.86353 6.64096 3.86353 6.16548C3.86353 5.69001 4.29089 5.30457 4.81807 5.30457C5.34525 5.30457 5.77262 5.69001 5.77262 6.16548ZM9.59081 6.16548C9.59081 6.64096 9.16345 7.0264 8.63627 7.0264C8.10909 7.0264 7.68172 6.64096 7.68172 6.16548C7.68172 5.69001 8.10909 5.30457 8.63627 5.30457C9.16345 5.30457 9.59081 5.69001 9.59081 6.16548ZM12.4546 7.0264C12.9818 7.0264 13.4092 6.64096 13.4092 6.16548C13.4092 5.69001 12.9818 5.30457 12.4546 5.30457C11.9274 5.30457 11.5001 5.69001 11.5001 6.16548C11.5001 6.64096 11.9274 7.0264 12.4546 7.0264Z" fill="#666666"/>
</g>
<path id="Combined Shape" d="M3.59399 11.8112C3.69144 11.7393 3.81348 11.7 3.93939 11.7H15.4545C15.7558 11.7 16 11.4797 16 11.208V1.49195C16 1.22026 15.7558 1 15.4545 1H1.54545C1.24421 1 1 1.22026 1 1.49195V12.6014C1 12.8399 1.25145 12.9946 1.46429 12.8871L3.59399 11.8112Z" stroke="#646464"/>
</g>
</g>
</svg>
