<svg width="14" height="16" viewBox="0 0 14 16" fill="none" xmlns="http://www.w3.org/2000/svg">
<g id="ic_&#228;&#189;&#141;&#231;&#189;&#174;_20">
<g id="ic_&#228;&#189;&#141;&#231;&#189;&#174;_20_2">
<g id="ic_&#228;&#189;&#141;&#231;&#189;&#174;_20_3">
<path id="&#229;&#189;&#162;&#231;&#138;&#182;&#231;&#187;&#147;&#229;&#144;&#136;" d="M9.22687 9.59241L9.53463 9.98647L9.57162 9.95758L9.60259 9.92231L9.22687 9.59241ZM9.05937 9.72323L9.36712 10.1173L9.36713 10.1173L9.05937 9.72323ZM8.7996 10.0037L9.11459 10.392L9.17352 10.3442L9.21562 10.2811L8.7996 10.0037ZM4.54282 9.81859L4.17612 10.1585L4.18657 10.1698L4.19769 10.1804L4.54282 9.81859ZM4.50238 9.77497L4.86908 9.43507L4.86908 9.43506L4.50238 9.77497ZM4.41203 9.68708L4.0484 10.0303L4.06475 10.0476L4.08267 10.0633L4.41203 9.68708ZM2.94055 11.6084L3.30725 11.2685L3.29527 11.2555L3.2824 11.2435L2.94055 11.6084ZM10.8452 11.3776L10.4837 11.0322L10.1771 11.353L10.4592 11.6955L10.8452 11.3776ZM10.8452 11.3777L11.2154 11.7137L11.506 11.3936L11.2312 11.0598L10.8452 11.3777ZM8.1291 14.3701L7.75887 14.034H7.75887L8.1291 14.3701ZM5.55036 14.4234L5.19206 14.7722L5.19206 14.7722L5.55036 14.4234ZM5.54012 14.4129L5.17332 14.7529L5.18182 14.7616L5.54012 14.4129ZM5.53013 14.4021L5.16343 14.742L5.16343 14.742L5.53013 14.4021ZM6.77636 2.9C4.67865 2.9 2.9 4.72192 2.9 7.06896H3.9C3.9 5.22108 5.2826 3.9 6.77636 3.9V2.9ZM10.6527 7.06896C10.6527 4.72192 8.87407 2.9 6.77636 2.9V3.9C8.27011 3.9 9.65271 5.22108 9.65271 7.06896H10.6527ZM9.60259 9.92231C10.2507 9.18417 10.6527 8.18834 10.6527 7.06896H9.65271C9.65271 7.94487 9.33951 8.70634 8.85116 9.2625L9.60259 9.92231ZM9.36713 10.1173L9.53463 9.98647L8.91911 9.19835L8.75161 9.32917L9.36713 10.1173ZM9.21562 10.2811C9.25699 10.219 9.30764 10.1637 9.36712 10.1173L8.75161 9.32917C8.60524 9.44348 8.48226 9.57833 8.38358 9.72636L9.21562 10.2811ZM6.77636 11.2379C7.64272 11.2379 8.45908 10.9238 9.11459 10.392L8.4846 9.61541C7.99435 10.0131 7.39724 10.2379 6.77636 10.2379V11.2379ZM4.19769 10.1804C4.88859 10.8395 5.80037 11.2379 6.77636 11.2379V10.2379C6.07741 10.2379 5.40783 9.95277 4.88796 9.45682L4.19769 10.1804ZM4.13568 10.1149L4.17612 10.1585L4.90952 9.47869L4.86908 9.43507L4.13568 10.1149ZM4.08267 10.0633C4.10074 10.0791 4.11844 10.0963 4.13568 10.1149L4.86908 9.43506C4.82833 9.39111 4.78571 9.34969 4.74139 9.31089L4.08267 10.0633ZM2.9 7.06896C2.9 8.24403 3.34297 9.28281 4.0484 10.0303L4.77566 9.3439C4.245 8.78163 3.9 7.98825 3.9 7.06896H2.9ZM3.2824 11.2435C2.18379 10.2142 1.5 8.71064 1.5 7.06896H0.5C0.5 8.98828 1.2991 10.7557 2.5987 11.9732L3.2824 11.2435ZM1.5 7.06896C1.5 4.03298 3.82379 1.5 6.77636 1.5V0.5C3.21058 0.5 0.5 3.54366 0.5 7.06896H1.5ZM6.77636 1.5C9.72892 1.5 12.0527 4.03298 12.0527 7.06896H13.0527C13.0527 3.54366 10.3421 0.5 6.77636 0.5V1.5ZM12.0527 7.06896C12.0527 8.60133 11.4569 10.0137 10.4837 11.0322L11.2067 11.7231C12.3562 10.52 13.0527 8.86085 13.0527 7.06896H12.0527ZM10.4592 11.6955L10.4592 11.6955L11.2312 11.0598L11.2311 11.0598L10.4592 11.6955ZM10.475 11.0416L7.75887 14.034L8.49934 14.7061L11.2154 11.7137L10.475 11.0416ZM7.75887 14.034C7.2574 14.5865 6.43673 14.6172 5.90866 14.0747L5.19206 14.7722C6.13676 15.7428 7.62442 15.6701 8.49934 14.7061L7.75887 14.034ZM5.90867 14.0747L5.89843 14.0642L5.18182 14.7616L5.19206 14.7722L5.90867 14.0747ZM5.90682 14.073L5.89683 14.0622L5.16343 14.742L5.17343 14.7528L5.90682 14.073ZM5.89683 14.0622L3.30725 11.2685L2.57385 11.9483L5.16343 14.742L5.89683 14.0622Z" fill="#646464"/>
</g>
</g>
</g>
</svg>
